<svg width="35" height="14" viewBox="0 0 35 14" fill="none" xmlns="http://www.w3.org/2000/svg">
<path d="M10.2321 13V0.993999H8.73807V6.16H1.71807V0.993999H0.224068V13H1.71807V7.492H8.73807V13H10.2321ZM18.5105 13.216C22.0565 13.216 24.4685 10.552 24.4685 7.006C24.4685 3.46 22.0565 0.795999 18.5105 0.795999C14.9465 0.795999 12.5525 3.46 12.5525 7.006C12.5525 10.552 14.9465 13.216 18.5105 13.216ZM18.5105 11.884C15.8105 11.884 14.1005 9.796 14.1005 7.006C14.1005 4.198 15.8105 2.128 18.5105 2.128C21.1925 2.128 22.9205 4.198 22.9205 7.006C22.9205 9.796 21.1925 11.884 18.5105 11.884ZM30.774 13V2.326H34.59V0.993999H25.482V2.326H29.28V13H30.774Z" fill="white"/>
</svg>
